<svg id="Group_4" data-name="Group 4" xmlns="http://www.w3.org/2000/svg" width="93.491" height="40.703" viewBox="0 0 93.491 40.703">
  <path id="Path_24" data-name="Path 24" d="M135.83,2.942c.085.1.169.192.246.291a17.562,17.562,0,0,1,3.449,6.415,14.912,14.912,0,0,1,.545,5.035,14.336,14.336,0,0,1-.959,4.529,10.961,10.961,0,0,1-4.1,5.111,6.444,6.444,0,0,1-1.617.79l-.314.084c.068-.131.115-.223.154-.3a12.756,12.756,0,0,0,1.218-3.043,9.1,9.1,0,0,0-.039-4.843,5.049,5.049,0,0,0-3.785-3.694c-.092-.023-.184-.053-.338-.1.123-.076.192-.13.268-.168a2.619,2.619,0,0,1,1.487-.252,8.212,8.212,0,0,1,2,.551c.475.168.943.337,1.418.49a2.171,2.171,0,0,0,.943.1,1.2,1.2,0,0,0,.881-.537,2.339,2.339,0,0,0,.353-.858,6.482,6.482,0,0,0,.131-1.632,18.031,18.031,0,0,0-.659-3.985A28.836,28.836,0,0,0,135.846,3.2c-.031-.076-.053-.154-.077-.222.031-.016.047-.031.061-.039" transform="translate(-93.649 -2.942)" fill="#fff"/>
  <path id="Path_25" data-name="Path 25" d="M130.364,8.508a3.309,3.309,0,0,1,.873-2.3,2.958,2.958,0,0,1,4.414.007,3.388,3.388,0,0,1-.23,4.752,2.993,2.993,0,0,1-4.683-.935,3.464,3.464,0,0,1-.375-1.525" transform="translate(-93.639 -2.629)" fill="#fff"/>
  <g id="Group_3" data-name="Group 3" transform="translate(38.273 30.824)">
    <path id="Path_26" data-name="Path 26" d="M143.715,35.654H145.7l-.989-2.82Z" transform="translate(-130.081 -29.668)" fill="#fff"/>
    <path id="Path_27" data-name="Path 27" d="M162.3,32.355h-.973v2h.973c.773,0,1.156-.33,1.156-.988C163.457,32.693,163.074,32.355,162.3,32.355Z" transform="translate(-127.667 -29.734)" fill="#fff"/>
    <path id="Path_28" data-name="Path 28" d="M131.725,30.05v9.879h55.218V30.05ZM135.6,36.6a1.726,1.726,0,0,0,1.357.59,1.925,1.925,0,0,0,1.1-.307,1.874,1.874,0,0,0,.69-.828h2.031a3.488,3.488,0,0,1-1.288,2.077,3.913,3.913,0,0,1-2.506.774,4.063,4.063,0,0,1-2.031-.491,3.359,3.359,0,0,1-1.349-1.387,4.185,4.185,0,0,1-.475-2.031,4.3,4.3,0,0,1,.475-2.031,3.407,3.407,0,0,1,1.349-1.387,4.408,4.408,0,0,1,4.537.3,3.56,3.56,0,0,1,1.288,2.084h-2.031a1.806,1.806,0,0,0-.69-.835,2,2,0,0,0-1.1-.307,1.707,1.707,0,0,0-1.357.6,2.722,2.722,0,0,0,0,3.18Zm12.73,2.253-.5-1.4h-2.973l-.49,1.4h-2.016l2.905-7.617h2.207l2.9,7.617Zm12.746,0h-1.916V34.081l-1.7,4.767H155.8l-1.717-4.775v4.775h-1.916V31.23h2.345l2.139,5.3,2.092-5.3h2.33Zm8.054-3.892a2.25,2.25,0,0,1-.98.881,3.549,3.549,0,0,1-1.579.322h-1.187v2.689h-1.916V31.177h3.1a3.125,3.125,0,0,1,2.154.674,2.37,2.37,0,0,1,.736,1.832A2.418,2.418,0,0,1,169.132,34.955Zm8.875.65a3.581,3.581,0,0,1-.437,1.832,2.8,2.8,0,0,1-1.2,1.119,3.859,3.859,0,0,1-1.709.376,3.649,3.649,0,0,1-1.678-.368,2.64,2.64,0,0,1-1.143-1.119,3.748,3.748,0,0,1-.414-1.832v-4.43h1.9v4.422a1.686,1.686,0,0,0,.353,1.158,1.52,1.52,0,0,0,2.054,0,1.687,1.687,0,0,0,.352-1.158V31.177h1.916Zm7.717,2.2a2.238,2.238,0,0,1-.943.812,3.353,3.353,0,0,1-1.509.307,3.628,3.628,0,0,1-2.2-.629,2.267,2.267,0,0,1-.943-1.755h2.039a1.011,1.011,0,0,0,.322.682.989.989,0,0,0,.7.252.831.831,0,0,0,.583-.2.724.724,0,0,0,.015-1.012,1.5,1.5,0,0,0-.49-.322q-.288-.126-.805-.3a10.656,10.656,0,0,1-1.226-.483,2.146,2.146,0,0,1-.82-.7,1.942,1.942,0,0,1-.346-1.2,1.977,1.977,0,0,1,.36-1.18,2.253,2.253,0,0,1,1-.766,3.731,3.731,0,0,1,1.449-.268,3.318,3.318,0,0,1,2.1.606,2.307,2.307,0,0,1,.881,1.67h-2.077a1.041,1.041,0,0,0-.283-.606.867.867,0,0,0-.621-.222.787.787,0,0,0-.544.176.705.705,0,0,0-.024.973,1.283,1.283,0,0,0,.467.307c.184.076.46.183.805.306a9.6,9.6,0,0,1,1.242.491,2.284,2.284,0,0,1,.828.712,2.017,2.017,0,0,1,.345,1.219A1.864,1.864,0,0,1,185.724,37.806Z" transform="translate(-131.725 -30.05)" fill="#fff"/>
  </g>
  <path id="Path_29" data-name="Path 29" d="M157.116,30.53h-3.464c-.039-.068-.085-.138-.123-.207q-2.127-3.988-4.246-7.978c-.069-.138-.146-.276-.207-.414a.708.708,0,0,0-.383-.375c-.192-.084-.322-.069-.43.1a1.916,1.916,0,0,0-.16.43.878.878,0,0,0-.008.246v8.154a35.248,35.248,0,0,1-3.609.015,2.225,2.225,0,0,1-.016-.23c0-3.365-.008-6.721,0-10.086a3.126,3.126,0,0,1,1.258-2.482,4.522,4.522,0,0,1,.773-.506,3.147,3.147,0,0,1,3.824.674,10.225,10.225,0,0,1,1.38,2.008q1.678,3.184,3.349,6.376c.069.131.138.254.222.414a2.434,2.434,0,0,0,.154-.26q1.851-3.449,3.709-6.9a8.624,8.624,0,0,1,1.065-1.556,3.364,3.364,0,0,1,5.127.107,3.6,3.6,0,0,1,.874,2.361v9.818c0,.092-.008.176-.016.284h-3.664c0-.108-.007-.207-.007-.315V22.314a.569.569,0,0,0-.391-.59c-.238-.061-.453.069-.606.36l-.873,1.678q-1.7,3.277-3.4,6.56a2.248,2.248,0,0,0-.131.207" transform="translate(-91.705 -1.04)" fill="#fff"/>
  <path id="Path_30" data-name="Path 30" d="M165.128,20.358V17.11a1.518,1.518,0,0,1,.184-.039c.092-.008.184,0,.276,0,4.1,0,8.2.023,12.3-.016a4,4,0,0,1,3.235,1.487,5.063,5.063,0,0,1,1.218,2.414,2.7,2.7,0,0,1,.039.437v8.928c0,.077-.008.161-.015.254h-3.809v-.889c-.084.084-.123.13-.161.168a1.972,1.972,0,0,1-1.471.66c-3.318-.016-6.629-.008-9.947-.008a1.87,1.87,0,0,1-1.686-.935,1.51,1.51,0,0,1-.23-.721c-.008-.154-.016-.306-.016-.467-.007-1.272-.023-2.537-.031-3.809a3.136,3.136,0,0,1,.207-1.18,1.912,1.912,0,0,1,1.863-1.264c3.127,0,6.246.008,9.373-.007a2.426,2.426,0,0,1,1.955.865c.031.031.061.069.092.1.007.008.015,0,.053,0,0-.352.015-.7-.008-1.051a1.723,1.723,0,0,0-1.67-1.685c-.131-.008-.254,0-.383,0H165.128Zm8.117,6.852c1.2,0,2.414-.008,3.617,0a.959.959,0,0,0,.828-.453.684.684,0,0,0-.061-.927,1.255,1.255,0,0,0-.943-.43H169.7a.928.928,0,0,0-.214.008,1.265,1.265,0,0,0-.391.168,1.03,1.03,0,0,0-.268,1.081.841.841,0,0,0,.866.536c1.18.016,2.367.016,3.556.016" transform="translate(-88.889 -1.007)" fill="#fff"/>
  <path id="Path_31" data-name="Path 31" d="M115.944,30.5h-3.663c-.061-.192-.084-7.871-.024-8.346.108-.007.223-.015.346-.015h10.928a1.25,1.25,0,0,0,.82-.246.936.936,0,0,0,.345-.927.757.757,0,0,0-.6-.667,2.617,2.617,0,0,0-.644-.084c-3.61-.008-7.213,0-10.822,0h-.368V17.085c.116-.007.231-.015.346-.015h10.438c.988,0,1.976.023,2.958-.008a2.471,2.471,0,0,1,2.475,2.437v3.587a2.109,2.109,0,0,1-.453,1.4,1.5,1.5,0,0,1-.773.545c-.376.1-.76.176-1.143.26-.168.039-.345.045-.559.076.061.084.1.154.147.207q2.011,2.311,4.031,4.629l3.847,4.422c.053.061.107.138.2.26h-.352c-1.371,0-2.736-.008-4.107.008a.586.586,0,0,1-.491-.223c-1-1.148-2.007-2.291-3.019-3.441-1.633-1.855-3.273-3.717-4.9-5.579a.66.66,0,0,0-.582-.262c-1.342.016-2.682.008-4.024.008h-.329v5.1Z" transform="translate(-96.125 -1.007)" fill="#fff"/>
  <path id="Path_32" data-name="Path 32" d="M134.476,17.093a9.114,9.114,0,0,1-.453,3.25,4.114,4.114,0,0,0-.443,0,2.769,2.769,0,0,0-.614.13,2.626,2.626,0,0,0-1.111.821,1.449,1.449,0,0,0-.352.957c.008.858,0,1.717,0,2.575a2.582,2.582,0,0,0,.453,1.525,1.474,1.474,0,0,0,1.119.66,3.312,3.312,0,0,0,.383.015h6.085a2.4,2.4,0,0,0,.836-.13,1.489,1.489,0,0,0,1.012-1.28,2.817,2.817,0,0,0,.03-.437V22.412a2.13,2.13,0,0,0-.467-1.372,2.036,2.036,0,0,0-1.6-.7c-.2-.008-.4,0-.606-.008-.076,0-.154-.015-.291-.023a13.681,13.681,0,0,0,1.748-3.234,6.1,6.1,0,0,1,1.449.061,4.538,4.538,0,0,1,2.912,2.16,4.018,4.018,0,0,1,.506,1.694c.023.306.031.621.038.927v4.3a4.346,4.346,0,0,1-2.467,3.993,2.447,2.447,0,0,1-1.234.3c-3.135-.008-6.262-.023-9.4,0a3.98,3.98,0,0,1-3.686-2.223,4.309,4.309,0,0,1-.567-2.23c.016-1.541.016-3.088,0-4.629a4.382,4.382,0,0,1,1.778-3.594,3.394,3.394,0,0,1,1.455-.721,2.609,2.609,0,0,1,.491-.053c.935-.008,1.863,0,2.8,0a1.849,1.849,0,0,0,.2.031" transform="translate(-93.996 -1.007)" fill="#fff"/>
  <path id="Path_33" data-name="Path 33" d="M112.281,20.249H104.02a2.284,2.284,0,0,0-2.115,1.457,1.286,1.286,0,0,0-.084.451c-.008,1.065.007,2.139,0,3.2a1.9,1.9,0,0,0,1.57,1.785,2.136,2.136,0,0,0,.383.015h8.584v3.327c-.092.007-.168.015-.246.015-3.287,0-6.576.015-9.863-.015a4.08,4.08,0,0,1-4.17-4.139c-.007-1.755.016-3.51-.007-5.258a3.6,3.6,0,0,1,.82-2.375,5.245,5.245,0,0,1,1.748-1.426,2.14,2.14,0,0,1,.973-.222c3.449.008,6.9,0,10.353,0h.314Z" transform="translate(-98.065 -1.005)" fill="#fff"/>
  <path id="Path_34" data-name="Path 34" d="M98.326,30.374H124a.258.258,0,0,0,.26-.26V27.892a.26.26,0,0,1,.453-.176l5.564,6.008a.259.259,0,0,1,0,.352l-5.625,5.855a.259.259,0,0,1-.445-.184V37.509a.258.258,0,0,0-.26-.26H98.326a.258.258,0,0,1-.26-.26V30.627a.262.262,0,0,1,.26-.254" transform="translate(-98.066 0.442)" fill="#fff"/>
  <text id="Powered_By:" data-name="Powered By:" transform="translate(0.007 4.691)" fill="#fff" font-size="4" font-family="Poppins-Medium, Poppins" font-weight="500"><tspan x="0" y="0">Powered By:</tspan></text>
</svg>
